<?xml version="1.0" standalone="no"?>
<!DOCTYPE svg PUBLIC "-//W3C//DTD SVG 20010904//EN"
 "http://www.w3.org/TR/2001/REC-SVG-20010904/DTD/svg10.dtd">
<svg version="1.0" xmlns="http://www.w3.org/2000/svg"
 width="260.000000pt" height="260.000000pt" viewBox="0 0 260.000000 260.000000"
 preserveAspectRatio="xMidYMid meet">
<metadata>
Created by potrace 1.14, written by Peter Selinger 2001-2017
</metadata>
<g transform="translate(0.000000,260.000000) scale(0.100000,-0.100000)"
fill="#000000" stroke="none">
<path d="M970 2219 c-173 -44 -380 -97 -460 -117 l-145 -37 0 -320 c1 -410 5
-457 62 -630 23 -72 107 -246 133 -277 5 -7 30 -41 55 -75 58 -78 182 -195
271 -255 38 -25 145 -91 237 -147 l169 -101 194 118 c224 135 284 177 373 264
161 158 278 368 333 598 18 75 21 129 25 456 l5 371 -466 117 c-256 64 -467
116 -468 115 -2 0 -145 -36 -318 -80z"/>
</g>
</svg>
